# This file uses centimeters as units for non-parametric coordinates.

mtllib ´ó×Ö°æ.mtl
g default
v 4148.479492 173.369019 -2878.468262
v 4148.479492 1084.171387 -2878.468262
v 4148.479492 1084.171387 -3593.689453
v 4148.479980 173.369019 -3593.689453
v 2612.402832 172.737915 -2180.819580
v 2612.402832 172.737915 -2446.343018
v 2844.647461 1164.378906 -2180.819580
v 2844.647705 1164.378906 -2446.343018
vt 0.701754 0.001221
vt 0.701754 0.893319
vt 0.001221 0.893319
vt 0.001221 0.001221
vt 0.704750 0.001221
vt 0.964821 0.001221
vt 0.964821 0.998779
vt 0.704750 0.998779
vn -1.000000 0.000000 -0.000000
vn -1.000000 0.000000 -0.000000
vn -1.000000 0.000000 -0.000000
vn -1.000000 0.000000 -0.000000
vn 0.973654 -0.228032 0.000000
vn 0.973654 -0.228032 0.000000
vn 0.973654 -0.228032 0.000000
vn 0.973654 -0.228032 0.000000
s off
g lishiyangegai:LSYG_neirong1001_1
usemtl initialShadingGroup
f 3/1/1 4/2/2 1/3/3 2/4/4
f 5/5/5 6/6/6 8/7/7 7/8/8
