# This file uses centimeters as units for non-parametric coordinates.

mtllib µÆÆ¬.mtl
g default
v 915.127380 1203.628784 -827.698242
v 915.127380 1203.630249 -3748.011719
v 759.153015 1203.628784 -504.187500
v 759.153015 1203.630249 -3748.011719
v -915.127380 1203.628784 -827.698242
v -915.127380 1203.630249 -3748.011719
v -759.153015 1203.628784 -504.187500
v -759.153015 1203.630249 -3748.011719
vt 0.960819 0.519560
vt 0.960819 0.379861
vt 0.970737 0.379861
vt 0.970737 0.535035
vt 0.960819 0.519560
vt 0.970737 0.535035
vt 0.970737 0.379861
vt 0.960819 0.379861
vn 0.000000 1.000000 0.000000
vn 0.000000 1.000000 0.000000
vn 0.000000 1.000000 0.000000
vn 0.000000 1.000000 0.000000
vn 0.000000 1.000000 0.000000
vn 0.000000 1.000000 0.000000
vn 0.000000 1.000000 0.000000
vn 0.000000 1.000000 0.000000
s off
g group3polySurface3752
usemtl lambert4SG
f 1/1/1 2/2/2 4/3/3 3/4/4
f 5/5/5 7/6/6 8/7/7 6/8/8
